<?xml version="1.0" encoding="UTF-8"?>
<svg id="Layer_2" xmlns="http://www.w3.org/2000/svg" version="1.1" xmlns:xlink="http://www.w3.org/1999/xlink" viewBox="0 0 1000 1000">
  <!-- Generator: Adobe Illustrator 29.1.0, SVG Export Plug-In . SVG Version: 2.1.0 Build 142)  -->
  <defs>
    <style>
      .st0 {
        fill: url(#linear-gradient1);
      }

      .st1 {
        fill: none;
      }

      .st2 {
        clip-path: url(#clippath-1);
      }

      .st3 {
        fill: #bbbdbf;
      }

      .st4 {
        fill: #9c9ea1;
      }

      .st5 {
        fill: #929497;
      }

      .st6 {
        fill: url(#linear-gradient);
      }

      .st7 {
        clip-path: url(#clippath);
      }
    </style>
    <clipPath id="clippath">
      <path class="st1" d="M729.3,551c1,5.3,1.4,10.8.9,16.3-5.1,18.3-52.9,39.1-90.8,28.8,29.1,9.3,58,6.7,86.7-9.5,0,0,0-.1.1-.1,26.7-16,45-38,49.8-69.8-13.7,14.6-29.3,26-46.7,34.3M713.4,505.5c5.6,11.9,10,23.9,13.1,36.1-17.4,13.5-47,21-74.3,23.1,26.6,2,62.2-7.3,76.2-15.8,22.3-14.1,41.1-29.3,49-47.5.9-9.9-1-20.5-4.3-30.4-18.4,14.2-38.4,25.4-59.6,34.5M686,414.6c-5.8,5.9-12.6,11.1-20.4,15.5,7.3,8.4,14.1,17.3,20.4,26.4,6.1,8.8,11.8,17.9,17,27.2-4.6,3.3-9.8,6.7-15.6,10.1-22,13-51.7,25.7-78.2,33.3,26.7-6.4,53.1-16.1,78.2-27.5,5.8-2.6,22.4-11,22.5-11.1h0c20.2-10.4,38.1-22.6,52.6-41.4-15.4-24-36.5-40.4-65.3-46.4-3.4,4.9-7.1,9.7-11.3,13.8M641.1,404.1c-5.8,1.5-13.6,6.7-15.6,10.1-3.2,5.3-2.5,10.9,15.3,7.1-12.6-2.4-13.4-9.3-.1-16.9,5.8,5.6,11.6,11.1,17.1,17.1-12,12.6-32.2,21.8-57.2,29.3,23.4-2.8,45.5-9.9,63.5-22.9,12.7-8.9,22-18.4,25.2-28.6-4.1-.5-8.1-.8-12.2-.8-11.7,0-23.8,2-36.1,5.6h0Z"/>
    </clipPath>
    <linearGradient id="linear-gradient" x1="2027.2" y1="7800.4" x2="2030.4" y2="7800.4" gradientTransform="translate(496220.2 129382.5) rotate(-90) scale(63.5 -63.5)" gradientUnits="userSpaceOnUse">
      <stop offset="0" stop-color="#4a6726"/>
      <stop offset=".2" stop-color="#54732d"/>
      <stop offset=".6" stop-color="#6f923e"/>
      <stop offset="1" stop-color="#8db64e"/>
    </linearGradient>
    <clipPath id="clippath-1">
      <path class="st1" d="M262.8,590.9c-1.1,1.2-1.6,2.6-1.6,4.1s.5,3,1.6,4.1c1.2,1.1,2.6,1.6,4.1,1.6s3-.5,4.1-1.6c1-1.2,1.6-2.6,1.6-4.1s-.6-2.8-1.7-4.1c-1.1-1.1-2.5-1.7-4-1.7-1.5,0-2.9.6-4.1,1.7M276.3,590.9c-1.1,1.2-1.7,2.6-1.7,4.1s.6,3,1.7,4.1c1.1,1.1,2.5,1.6,4.1,1.6s2.8-.5,3.9-1.6c1.1-1.2,1.7-2.6,1.7-4.1s-.6-3-1.7-4.1c-1.1-1.1-2.5-1.7-3.9-1.7-1.6,0-3,.6-4.1,1.7M444.5,590.4c-1.1,1.1-1.7,2.5-1.7,4.1s.6,2.9,1.7,4c1.1,1.1,2.5,1.7,4,1.7s3-.6,4.1-1.7c1.1-1.1,1.7-2.5,1.7-4s-.6-3-1.7-4.1c-1.1-1.1-2.5-1.7-4.1-1.7s-2.8.5-4,1.7M208,550.5c-2.1,3.1-3.7,5.3-5.1,6.5h31.4c2.5,0,4.2.5,5.3,1.7.9.9,1.4,2.4,1.4,4.5v3.8h-38.1v12.3h85v-35.5c0-1.2-.4-1.9-1.1-1.9l-1.1.2c-.2.1-.7.6-1.2,1.5-.6.5-1.2,1.1-1.9,1.7-.5.4-1.2,1-2.2,1.9l-2.6,2.1-1.5,1c-.6.4-1,.7-1.2,1.1-.4.2-.5.6-.5,1,0,.7.2,1.2.6,1.5.4.5.6,1,.6,1.4v11.7h-22.6v-5.2c0-6.3-1.7-10.9-5.2-13.7-2.7-2.1-6.4-3.2-11.3-3.2h-19c-.6-.1-1.5-.5-2.3-.9-.9-.6-1.7-1.7-2.7-3.2-.6,2.5-2.1,5.7-4.6,9.7M495.3,510.7c-.2.1-.7.6-1.3,1.4-1,1.1-2.4,2.4-4.1,3.7l-2.1,1.7-1.9,1.2-1.1.9c-.4.5-.6.9-.6,1.2,0,.7.2,1.2.6,1.6.4.5.6.9.6,1.2v43.3h-9c-2.5,0-4.6-.9-6.3-2.3-1-1-2-2.5-3.1-4.2-1.1-1.9-2.1-4.1-3.2-6.9-3.7-8.5-7.8-14.3-12.5-17.4-3.6-2.4-8.4-3.5-14.3-3.5h-2.9c0,.1-2.5.5-2.5.5l-3.1.9,5.1,13.7c.6-.8,1.4-1.4,2.4-1.7.6-.4,1.1-.5,1.5-.6h2c4-.1,7.1,1.7,9.2,5.3l4.6,10.5,1.4,2.5,1.5,2.1c.4.5.9,1,1.3,1.2h-110.8v-5.2c0-6.3-1.7-10.9-5.3-13.7-2.7-2.1-6.4-3.2-11.1-3.2h-19c-.7-.1-1.5-.5-2.4-.9-.9-.6-1.9-1.7-2.7-3.2-.6,2.5-2.1,5.7-4.6,9.7-2.1,3.1-3.7,5.3-5.1,6.5h31.4c2.3,0,4.2.5,5.2,1.7,1,.9,1.4,2.4,1.4,4.5v3.8h-38v12.3h201.3v-66.9c0-1.4-.4-2-1.1-2l-1.1.4ZM518.5,510.7l-1.4,1.4-1.9,1.7-2.2,2c-1.2,1.1-2.6,2.1-3.8,3l-1.3.9c-.4.6-.6,1-.6,1.2,0,.6.2,1.1.6,1.6.4.4.6.9.6,1.2v55.5h12.1v-66.9c0-1.4-.4-2-1.2-2l-1,.4h0ZM217.4,433.6l-.5,1-5.7,9.6-.7,1.5-.2.9v1c.1,0,.4.4.4.4l.5.6,1,.9c2,1.7,3.5,3.8,4.6,6.4,1.2,2.6,1.7,5.2,1.7,7.7,0,4.6-1.6,8.4-4.8,11.5-3.3,3.1-7.2,4.7-11.7,4.7h-.6c-.9,0-1.5.1-1.7.2-.4.2-.5.5-.5.9,0,1,1,1.9,3.1,2.5,2,.6,4.5,1,7.3,1,6.8,0,12.4-2.1,16.4-6.2,4.2-4.2,6.2-9.6,6.2-16.4s-.3-4.3-.8-6.8c-.4-2.4-1.1-4.7-2-6.9-.9-2.2-1.9-4.2-2.7-6.1-1-1.7-2-3.5-3.1-4.9-2.2-2.9-3.8-4.2-4.7-4.2s-.9.2-1.3.9M269.8,440c-2.2,3.1-4,5.3-5.3,6.6h33.1c2.6,0,4.5.6,5.6,1.7,1,1,1.4,2.5,1.4,4.5v3.8h-40.1v12.2h139.4c1.5,3.8,4,6.9,7.4,9.3,3.3,2.3,7.3,3.5,11.6,3.5v-12.1c-1.1,0-2-.1-2.9-.5-.7-.4-1.5-.7-2.1-1.5-1.5-1.2-2.1-2.8-2.1-4.7s.6-3.4,2.1-4.7c1.4-1.2,3-2,4.9-2v-15.1l-1.7,1.5-1.4,1.2-5.1,1.9c-1.7.7-3.3,1.6-4.6,2.6-1.4,1.1-2.5,2.3-3.6,3.7-1.1,1.4-2,3-2.7,4.7h-86.5v-5.1c0-6.4-1.8-11-5.6-13.9-2.8-2.1-6.8-3.2-11.8-3.2h-20.2c-.6-.1-1.5-.4-2.5-.9-.9-.5-1.8-1.6-2.8-3.2-.6,2.5-2.2,5.7-4.8,9.7M252.7,400.3l-1.5,1.4-1.9,1.7-2.4,2c-1.4,1.1-2.7,2.1-4.1,3l-1.4,1c-.5.5-.6.9-.6,1.2s.1,1,.6,1.5c.4.4.6.9.6,1.2v55.5h12.8v-66.9c0-1.4-.4-2-1.1-2,0,0-1.1.4-1.1.4ZM492.7,400.3c-.2.1-.7.6-1.5,1.4l-2,1.9-2.2,1.9c-1.7,1.4-3.1,2.3-4.2,3l-1.1.9c-.5.5-.9.9-.9,1.4s.2,1.1.7,1.6c.4.5.6.9.6,1.1v43.3h-40.3l-1.4-2.7c-.4-.7-.9-1.5-1.4-2.1-.6-.9-1.2-1.5-1.9-2.1-.5-.5-1.1-1-1.7-1.5-1.5-1.1-3-2-4.5-2.5-1-.5-1.9-.7-2.7-1.1l-2.5-.9-.6-.5-.7-.7c-.5-.5-.9-.9-1.2-1.1l-.4-.4v15.1c2,.1,3.6.7,5,2,1.4,1.4,2.1,2.9,2.1,4.7s-.7,3.5-2.1,4.8c-1.4,1.2-3,1.9-5,1.9v12.1c4.3,0,8.3-1.2,11.8-3.6,3.5-2.5,5.8-5.4,7.2-9.2h53.1v-66.9c0-1.4-.4-2-1.1-2,0,0-1.1.4-1.1.4ZM517.4,400.3l-1.5,1.4-1.9,1.7-2.3,2c-1.4,1.1-2.7,2.1-4.1,3l-1.4,1c-.4.5-.6.9-.6,1.2s.2,1,.6,1.5c.5.4.6.9.6,1.2v55.5h12.9v-66.9c0-1.4-.5-2-1.2-2l-1.1.4h0Z"/>
    </clipPath>
    <linearGradient id="linear-gradient1" x1="2028.4" y1="7804.3" x2="2031.6" y2="7804.3" gradientTransform="translate(490400.5 127963.5) rotate(-90) scale(62.8 -62.8)" gradientUnits="userSpaceOnUse">
      <stop offset="0" stop-color="#4a6726"/>
      <stop offset=".2" stop-color="#54732d"/>
      <stop offset=".6" stop-color="#6f923e"/>
      <stop offset="1" stop-color="#8ab34d"/>
    </linearGradient>
  </defs>
  <g class="st7">
    <rect class="st6" x="600.6" y="398.5" width="177.5" height="208"/>
  </g>
  <g class="st2">
    <rect class="st0" x="199" y="400" width="321.7" height="200.7"/>
  </g>
  <path class="st4" d="M540.3,548.8c.7,0,1.4,0,2.2,0,196.8-30.1,327.8-134,190.7-147.3.3,0,.5.1.8.2,132.6,24.1-22.2,119.1-193.7,147.2"/>
  <path class="st4" d="M732.8,401.4c.2,0,.5,0,.7.1-.1,0-.2,0-.3,0-.1,0-.3,0-.4,0"/>
  <path class="st4" d="M733,401.4s0,0,.2,0c0,0,0,0,0,0,0,0-.2,0-.2,0"/>
  <path class="st5" d="M540.2,548.8c154.4-26.7,328.5-116.8,193.8-147.2-.2,0-.3,0-.5-.1,118.3,31.4-34.7,113-183.7,144.3-2.4.5-10.8,2.1-13.1,2.5-.6.1-1.2.2-1.8.3,1.2.1,2.8.2,5.2.2"/>
  <path class="st4" d="M733.2,401.4s0,0,0,0c.1,0,.2,0,.3,0,.2,0,.3,0,.5.1-.3,0-.5-.1-.8-.2"/>
  <path d="M755.5,401.8c84.5,7.9,41.6,83.4-110,126.4-.4,0-.7.2-1.1.3-.4.1-.9.2-1.3.4-15.1,4.3-31.1,8.1-48,11.5-13.3,2.7-27.3,5.1-41.9,7.3-2.2.3-4.4.6-6.6,1,2.7-.2,6.1-.4,10-.7,10.8-1.6,21.3-3.3,31.4-5.2,201.7-37.9,266.3-133.8,167.6-140.9"/>
  <path class="st5" d="M553.1,547.6c11.7-1.8,23.1-3.8,34.3-5.8,2.5-.5,5.1-1,7.6-1.4,17-3.5,33.1-7.3,48-11.5.4-.1.9-.2,1.3-.4.4,0,.7-.2,1.1-.3,144.6-41.5,202.7-119.8,90.3-126.6,7.2-.3,13.8-.1,19.8.3-6.9-.6-14.7-.8-23.3-.5,135.2,7.9,22.3,116.1-188.1,147.5.7,0,1.4,0,2.1-.1,2.3-.3,4.6-.7,6.9-1"/>
  <path class="st3" d="M553.1,547.6c14.6-2.2,28.6-4.6,41.9-7.3-2.5.5-5,1-7.6,1.4-11.2,2.1-22.6,4-34.3,5.8"/>
  <path class="st3" d="M644.4,528.4c-.5.1-.9.2-1.3.4.4-.1.9-.2,1.3-.4"/>
  <path class="st5" d="M735.7,401.5c112.5,6.8,54.3,85.1-90.2,126.6,151.6-43,194.5-118.5,110-126.4-6-.4-12.6-.5-19.8-.3"/>
</svg>